<?xml version="1.0" encoding="utf-8"?>
<svg width="448px" height="512px" viewBox="0 0 448 512" version="1.1" xmlns:xlink="http://www.w3.org/1999/xlink" xmlns="http://www.w3.org/2000/svg">
  <defs>
    <path d="M0 0L448 0L448 512L0 512L0 0Z" id="path_1" />
    <clipPath id="mask_1">
      <use xlink:href="#path_1" />
    </clipPath>
  </defs>
  <g id="bars-solid">
    <path d="M0 0L448 0L448 512L0 512L0 0Z" id="Background" fill="none" fill-rule="evenodd" stroke="none" />
    <g clip-path="url(#mask_1)">
      <path d="M0 96C0 78.33 14.33 64 32 64L416 64C433.7 64 448 78.33 448 96C448 113.7 433.7 128 416 128L32 128C14.33 128 0 113.7 0 96L0 96ZM0 256C0 238.3 14.33 224 32 224L416 224C433.7 224 448 238.3 448 256C448 273.7 433.7 288 416 288L32 288C14.33 288 0 273.7 0 256L0 256ZM416 448L32 448C14.33 448 0 433.7 0 416C0 398.3 14.33 384 32 384L416 384C433.7 384 448 398.3 448 416C448 433.7 433.7 448 416 448L416 448Z" id="Shape" fill="#F0EEEE" fill-rule="evenodd" stroke="none" />
    </g>
  </g>
</svg>